<?xml version="1.0" standalone="no"?><!DOCTYPE svg PUBLIC "-//W3C//DTD SVG 1.1//EN" "http://www.w3.org/Graphics/SVG/1.1/DTD/svg11.dtd"><svg t="1554910833467" class="icon" style="" viewBox="0 0 1024 1024" version="1.1" xmlns="http://www.w3.org/2000/svg" p-id="26499" xmlns:xlink="http://www.w3.org/1999/xlink" width="200" height="200"><defs><style type="text/css"></style></defs><path d="M606.432743 951.081247c-12.797467 0-25.269523-3.586688-33.828456-6.052856-58.241472-16.791431-102.33983-62.724577-137.798413-105.437377-213.768665-29.588899-370.966916-189.946097-370.966916-379.647623 0-213.401298 201.052039-387.024637 448.16002-387.024637s448.16002 173.623339 448.16002 387.024637c0 171.60538-132.744303 324.05549-323.200006 371.680161 1.426489 5.399987 3.015683 10.698666 4.524037 15.854083 2.934842 9.843182 5.665023 19.298532 7.498788 28.203342 3.668553 18.299785 9.210779 45.871747-10.43363 64.007803C629.134791 948.329577 617.641015 951.081247 606.432743 951.081247zM512 135.520533c-212.586746 0-385.557216 145.541771-385.557216 324.422857 0 158.27784 134.619 292.571429 320.143391 319.348282 14.264888 2.057869 27.185152 9.272177 36.354999 20.276812 30.078039 36.21276 63.417355 71.344908 103.725386 84.305081-1.426489-5.950526-3.301186-12.186554-5.216815-18.645662-2.119267-7.234775-4.320399-14.69263-6.195096-22.293749-3.790326-15.263635-1.385557-31.015388 6.766101-44.38386 8.273431-13.613042 21.438265-23.210631 37.08871-27.000957 163.92342-39.880289 278.44878-168.019715 278.44878-311.604924C897.557216 281.062304 724.586746 135.520533 512 135.520533zM273.964652 465.092667m-58.989509 0a57.646 57.646 0 1 0 117.979018 0 57.646 57.646 0 1 0-117.979018 0ZM511.983627 465.092667m-58.989509 0a57.646 57.646 0 1 0 117.979018 0 57.646 57.646 0 1 0-117.979018 0ZM750.002602 465.092667m-58.989509 0a57.646 57.646 0 1 0 117.979018 0 57.646 57.646 0 1 0-117.979018 0Z" p-id="26500"></path></svg>