<?xml version="1.0" standalone="no"?><!DOCTYPE svg PUBLIC "-//W3C//DTD SVG 1.1//EN" "http://www.w3.org/Graphics/SVG/1.1/DTD/svg11.dtd"><svg t="1554873129287" class="icon" style="" viewBox="0 0 1024 1024" version="1.1" xmlns="http://www.w3.org/2000/svg" p-id="14142" xmlns:xlink="http://www.w3.org/1999/xlink" width="200" height="200"><defs><style type="text/css"></style></defs><path d="M857.895403 959.636087 206.796368 959.636087c-22.472827 0-40.692794-18.241456-40.692794-40.694841L166.103574 756.155742l-40.695864 0 0-122.080429 40.695864 0 0-61.038168-40.695864 0L125.40771 450.954669l40.695864 0L166.103574 389.913431l-40.695864 0L125.40771 267.831978l40.695864 0L166.103574 105.057731c0-22.472827 18.219967-40.693818 40.692794-40.693818l651.100058 0c22.472827 0 40.694841 18.22099 40.694841 40.693818l0 813.883515C898.590244 941.393607 880.36823 959.636087 857.895403 959.636087zM857.895403 135.577838c0-16.84976-13.668301-30.520107-30.521131-30.520107L237.316475 105.057731c-16.870226 0-30.520107 13.669324-30.520107 30.520107l0 752.8433c0 16.850783 13.649881 30.520107 30.520107 30.520107l590.057797 0c16.85283 0 30.521131-13.669324 30.521131-30.520107L857.895403 135.577838zM308.529377 674.770154l447.631994 0 0 40.693818L308.529377 715.463971 308.529377 674.770154zM308.529377 491.647463l447.631994 0 0 40.692794L308.529377 532.340257 308.529377 491.647463zM308.529377 308.524772l244.163929 0 0 40.695864L308.529377 349.220636 308.529377 308.524772z" p-id="14143"></path></svg>