<?xml version="1.0" standalone="no"?><!DOCTYPE svg PUBLIC "-//W3C//DTD SVG 1.1//EN" "http://www.w3.org/Graphics/SVG/1.1/DTD/svg11.dtd"><svg t="1555246023341" class="icon" style="" viewBox="0 0 1025 1024" version="1.1" xmlns="http://www.w3.org/2000/svg" p-id="2569" xmlns:xlink="http://www.w3.org/1999/xlink" width="200.1953125" height="200"><defs><style type="text/css"></style></defs><path d="M851.721208 408.031196l-180.453354 0.515771c10.078003-18.93719 59.671847-118.827922 46.530942-225.734779-5.499511-44.905853-33.750257-79.593504-79.562803-97.672099-17.906671-7.031474-105.656317-19.515385-132.203176 5.905783-18.437792 18.844064-17.015328 44.327658-15.37489 73.859644 0.797194 14.234872 1.702863 30.375232 0.952744 47.187936-4.468993 48.484527-10.718623 74.328341-23.077685 95.343965-37.390332 63.655769-100.609128 98.390494-114.124582 100.640852L91.814413 408.078271c-17.672322 0-32.00032 14.327997-32.00032 32.00032l0 417.265954c0 17.672322 14.327997 32.00032 32.00032 32.00032l269.327668-0.171924c0.266072 0.218998 0.531121 0.436973 0.812544 0.672344 23.890229 19.812158 87.359747 72.42183 192.437868 72.42183l210.921711 0c58.640305 0 105.96844-32.15587 123.515913-83.937647 0.202624-0.608896 0.390922-1.218816 0.562845-1.844086 2.17156-7.999568 8.233917-25.984014 15.23469-46.812364 28.124873-83.531375 75.18796-223.344221 75.18796-299.359052C979.814589 451.453184 934.33054 408.031196 851.721208 408.031196zM123.814733 472.077887l101.343897 0 0 353.265315-101.343897 0L123.814733 472.077887zM843.970315 809.26629c-7.640371 22.718487-13.250404 39.359268-16.030861 49.312421-12.609784 35.796968-47.937032 39.687765-62.62525 39.687765L554.392493 898.266476c-82.000436 0-130.765362-40.437884-151.593712-57.702911-10.374776-8.594138-18.577992-15.39024-31.749598-15.39024l-81.890937 0L289.158246 472.077887l65.250156 0c36.484663 0 122.624571-52.734521 169.296735-132.218526 20.156006-34.249655 27.04728-72.030909 31.734247-123.343989 0.999818-21.516045-0.031724-40.171812-0.874969-55.172154-0.390922-7.109249-0.844268-15.297115-0.827894-21.437247 18.328293-1.109317 51.421556 1.124667 61.047236 4.781116 24.281151 9.578605 36.82851 24.171652 39.484117 45.922045 11.030747 89.703231-34.296729 178.093497-39.500491 187.891101-0.296773 0.531121-0.76547 1.468515-1.015168 2.03136-9.265459 20.108931-7.62502 43.250064 4.374844 61.952906 11.906739 18.500217 32.327793 29.547337 54.624658 29.547337L851.721208 472.031836c53.60949 0 64.093765 21.374822 64.093765 58.281107C915.814973 595.843499 869.080383 734.671877 843.970315 809.26629z" p-id="2570"></path></svg>