<?xml version="1.0" standalone="no"?><!DOCTYPE svg PUBLIC "-//W3C//DTD SVG 1.1//EN" "http://www.w3.org/Graphics/SVG/1.1/DTD/svg11.dtd"><svg t="1555429980686" class="icon" style="" viewBox="0 0 1024 1024" version="1.1" xmlns="http://www.w3.org/2000/svg" p-id="6789" xmlns:xlink="http://www.w3.org/1999/xlink" width="200" height="200"><defs><style type="text/css"></style></defs><path d="M64 320h256V64H64v256z m64-192h128v128H128V128zM384 320h256V64H384v256z m64-192h128v128H448V128zM704 64v256h256V64h-256z m192 192h-128V128h128v128zM64 640h256V384H64v256z m64-192h128v128H128V448zM384 640h256V384H384v256z m64-192h128v128H448V448zM704 640h256V384h-256v256z m64-192h128v128h-128V448zM64 960h256v-256H64v256z m64-192h128v128H128v-128zM384 960h256v-256H384v256z m64-192h128v128H448v-128zM704 960h256v-256h-256v256z m64-192h128v128h-128v-128z" p-id="6790"></path></svg>