<?xml version="1.0" standalone="no"?><!DOCTYPE svg PUBLIC "-//W3C//DTD SVG 1.1//EN" "http://www.w3.org/Graphics/SVG/1.1/DTD/svg11.dtd"><svg t="1555430368526" class="icon" style="" viewBox="0 0 1024 1024" version="1.1" xmlns="http://www.w3.org/2000/svg" p-id="13935" xmlns:xlink="http://www.w3.org/1999/xlink" width="200" height="200"><defs><style type="text/css"></style></defs><path d="M698.752 720.576c-12.16 12.16-31.84 12.16-44 0l-154.016-154.016-154.016 154.016c-12.16 12.16-31.84 12.16-44 0s-12.16-31.84 0-44l153.984-153.984-153.984-153.984c-12.16-12.16-12.16-31.84 0-44s31.84-12.16 44 0l154.016 154.016 154.016-154.016c12.128-12.16 31.84-12.16 44 0s12.16 31.84 0 44l-153.984 153.984 153.984 153.984c12.16 12.16 12.16 31.84 0 44zM1008.96 517.92c0 17.248-13.984 31.264-31.264 31.264s-31.232-13.984-31.232-31.264c0-2.016 0.768-3.776 1.152-5.696l-1.312 0.032c0-0.096 0.032-0.192 0.032-0.32 0-240.512-194.976-435.488-435.488-435.488s-435.488 194.976-435.488 435.488c0 240.512 194.976 435.488 435.488 435.488 153.76 0 288.64-79.872 366.112-200.256l4.224-0.032c2.112-15.2 14.624-27.136 30.432-27.136 15.552 0 27.872 11.552 30.272 26.4l7.744-0.096c-2.784 5.216-5.92 10.24-8.896 15.36-1.152 3.232-2.912 6.016-4.992 8.64-87.328 143.296-244.832 239.072-424.896 239.072-274.752 0-497.504-222.72-497.504-497.504s222.752-497.504 497.504-497.504c274.464 0 496.992 222.272 497.472 496.576l-0.736 0.032c0.544 2.272 1.408 4.448 1.408 6.88z" p-id="13936"></path></svg>