<?xml version="1.0" standalone="no"?><!DOCTYPE svg PUBLIC "-//W3C//DTD SVG 1.1//EN" "http://www.w3.org/Graphics/SVG/1.1/DTD/svg11.dtd"><svg t="1520221907077" class="icon" style="" viewBox="0 0 1024 1024" version="1.1" xmlns="http://www.w3.org/2000/svg" p-id="8277" xmlns:xlink="http://www.w3.org/1999/xlink" width="200" height="200"><defs><style type="text/css"></style></defs><path d="M603.2 155.6a31.8 31.7 0 1 0 63.6 0 31.8 31.7 0 1 0-63.6 0Z" fill="#4D4D4D" p-id="8278"></path><path d="M833.1 639.9h-1.6S704.2 638.6 643 530.1c-37.1-75.6-4.5-128.2 9.3-145.6 1.8-2 3.6-4 5.3-6.1l0.2-0.2c22.8-27.2 38.2-60.9 42.9-97.9 0.3-1.7 0.4-3.4 0.4-5.2 0-17.4-14.2-31.5-31.7-31.5-16.8 0-30.6 13.1-31.6 29.5-3.9 28.9-17.5 54.7-37.4 74-0.5 0.4-1.3 1.5-1.3 1.5-1.7 2.4-11.5 16.2-18.6 29.5-35.5 72.8-16 164.8 37 227.9 32.9 34.8 79.5 77.4 186.2 97.8v0.1c16.6 1.2 29.7 15.1 29.7 31.9v30.9c0 0.5-0.4 1-1 1H193.2c-0.5 0-1-0.4-1-1v-30.9c0-16.1 12-29.5 27.6-31.7l-0.1-0.2c107.1-20.4 153.8-63 186.8-97.9 53-63.1 72.5-155.1 37-227.9-4.9-11.2-9.6-18.6-18.8-29.8l-0.3-0.3c0.1 0.1 0.2 0.2 0.4 0.3 0 0-6.5-6.7-2-1.9-23.4-23-37.9-55.1-37.9-90.6 0-70.2 56.9-127.1 127.1-127.1 3 0 6 0.1 8.9 0.3 1.2 0.1 2.4 0.2 3.6 0.2 17.6 0 31.8-14.2 31.8-31.7s-14.2-31.7-31.8-31.7c-4.1-0.3-8.3-0.4-12.5-0.4-105.1 0-190.3 85.2-190.3 190.3 0 50.2 19.4 95.8 51.2 129.8 14.3 18.6 44.5 70.5 8.3 144.3C320 638.5 192.7 639.9 192.7 639.9c-35.2 0-64 28.8-64 64v126.8c0 0.5 0.5 1 1 1H257c-0.6 0-1 0.5-1 1v62.8c0 35.2 28.8 64 64 64h384.1c35.2 0 64-28.8 64-64v-62.8c0-0.5-0.4-1-1-1h129c0.5 0 1-0.5 1-1V703.9c0-35.2-28.8-64-64-64z m-128 223.7c0 17.6-14.4 32-32 32H351c-17.6 0-32-14.4-32-32v-31.9h386.1v31.9z" fill="#4D4D4D" p-id="8279"></path></svg>