<svg id="svg" version="1.1" width="400" height="400" viewBox="0 0 400 400" xmlns="http://www.w3.org/2000/svg" xmlns:xlink="http://www.w3.org/1999/xlink" ><g id="svgg"><path id="path0" d="M95.200 18.199 C 95.200 19.178,95.134 19.200,92.200 19.200 C 89.267 19.200,89.200 19.222,89.200 20.200 C 89.200 21.133,89.067 21.200,87.200 21.200 C 85.345 21.200,85.200 21.271,85.200 22.178 C 85.200 23.061,85.015 23.168,83.300 23.278 C 81.679 23.382,81.381 23.532,81.272 24.300 C 81.180 24.951,80.876 25.200,80.172 25.200 C 79.402 25.200,79.200 25.408,79.200 26.200 C 79.200 26.950,78.989 27.200,78.358 27.200 C 77.894 27.200,77.180 27.626,76.770 28.148 C 76.360 28.669,75.493 29.201,74.844 29.331 C 74.195 29.461,73.562 29.891,73.436 30.287 C 73.310 30.683,72.801 31.186,72.304 31.404 C 71.747 31.648,71.352 32.219,71.274 32.891 C 71.205 33.491,70.710 34.327,70.174 34.749 C 69.638 35.170,69.200 35.894,69.200 36.358 C 69.200 36.989,68.950 37.200,68.200 37.200 C 67.408 37.200,67.200 37.402,67.200 38.172 C 67.200 38.876,66.951 39.180,66.300 39.272 C 65.532 39.381,65.382 39.679,65.278 41.300 C 65.168 43.015,65.061 43.200,64.178 43.200 C 63.272 43.200,63.200 43.346,63.200 45.182 C 63.200 46.762,62.998 47.366,62.200 48.164 C 61.240 49.123,61.200 49.364,61.200 54.154 C 61.200 59.025,61.178 59.147,60.300 59.272 L 59.400 59.400 59.400 204.000 L 59.400 348.600 60.300 348.728 C 61.164 348.851,61.200 349.013,61.200 352.828 C 61.200 356.798,61.200 356.800,62.200 356.800 C 63.133 356.800,63.200 356.933,63.200 358.800 C 63.200 360.667,63.267 360.800,64.200 360.800 C 65.133 360.800,65.200 360.933,65.200 362.800 C 65.200 364.667,65.267 364.800,66.200 364.800 C 67.000 364.800,67.200 365.000,67.200 365.800 C 67.200 366.600,67.400 366.800,68.200 366.800 C 68.914 366.800,69.200 367.016,69.200 367.557 C 69.200 368.540,73.460 372.800,74.443 372.800 C 74.984 372.800,75.200 373.086,75.200 373.800 C 75.200 374.600,75.400 374.800,76.200 374.800 C 77.000 374.800,77.200 375.000,77.200 375.800 C 77.200 376.592,77.402 376.800,78.172 376.800 C 78.876 376.800,79.180 377.049,79.272 377.700 C 79.381 378.468,79.679 378.618,81.300 378.722 C 83.015 378.832,83.200 378.939,83.200 379.822 C 83.200 380.729,83.345 380.800,85.200 380.800 C 87.067 380.800,87.200 380.867,87.200 381.800 C 87.200 382.727,87.340 382.800,89.105 382.800 C 90.697 382.800,91.075 382.948,91.405 383.700 C 91.766 384.522,92.107 384.610,95.370 384.717 C 98.569 384.821,99.034 384.935,99.851 385.817 L 100.763 386.802 200.682 386.701 L 300.600 386.600 300.728 385.700 C 300.853 384.819,300.968 384.800,306.047 384.800 C 311.070 384.800,311.268 384.768,312.165 383.800 C 312.891 383.017,313.485 382.800,314.903 382.800 C 316.488 382.800,316.744 382.679,316.958 381.824 C 317.155 381.040,317.497 380.824,318.702 380.724 C 319.792 380.634,320.305 380.360,320.587 379.718 C 320.811 379.208,321.401 378.786,321.987 378.718 C 322.687 378.636,323.039 378.322,323.128 377.700 C 323.220 377.049,323.524 376.800,324.228 376.800 C 324.998 376.800,325.200 376.592,325.200 375.800 C 325.200 375.000,325.400 374.800,326.200 374.800 C 327.000 374.800,327.200 374.600,327.200 373.800 C 327.200 373.000,327.400 372.800,328.200 372.800 C 328.992 372.800,329.200 372.598,329.200 371.828 C 329.200 371.124,329.449 370.820,330.100 370.728 C 330.663 370.648,331.046 370.279,331.122 369.741 C 331.190 369.268,331.581 368.794,331.991 368.686 C 332.524 368.547,332.816 367.969,333.011 366.668 C 333.229 365.214,333.458 364.820,334.142 364.722 C 334.861 364.620,335.020 364.292,335.122 362.700 C 335.220 361.167,335.386 360.800,335.979 360.800 C 336.941 360.800,337.200 360.035,337.200 357.195 C 337.200 355.074,337.284 354.844,338.100 354.728 C 338.981 354.603,339.002 354.476,339.111 348.689 C 339.209 343.425,339.308 342.692,340.011 341.989 C 341.266 340.734,341.256 77.200,340.000 77.200 C 339.290 77.200,339.200 76.933,339.200 74.833 C 339.200 71.969,338.943 71.200,337.985 71.200 C 337.533 71.200,337.207 70.858,337.128 70.300 C 337.034 69.640,336.688 69.364,335.831 69.267 C 335.189 69.194,334.321 68.699,333.902 68.167 C 332.726 66.671,325.669 66.695,324.164 68.200 C 323.614 68.750,322.722 69.200,322.182 69.200 C 321.401 69.200,321.200 69.405,321.200 70.200 C 321.200 71.000,321.000 71.200,320.200 71.200 L 319.200 71.200 319.200 205.172 L 319.200 339.144 318.300 339.272 C 317.430 339.396,317.396 339.563,317.288 344.274 C 317.180 348.964,317.142 349.152,316.288 349.274 C 315.536 349.381,315.381 349.687,315.279 351.275 C 315.177 352.856,315.021 353.169,314.279 353.275 C 313.536 353.381,313.381 353.693,313.278 355.300 C 313.168 357.015,313.061 357.200,312.178 357.200 C 311.401 357.200,311.200 357.406,311.200 358.200 C 311.200 359.000,311.000 359.200,310.200 359.200 C 309.406 359.200,309.200 359.401,309.200 360.178 C 309.200 361.061,309.015 361.168,307.300 361.278 C 305.691 361.381,305.381 361.535,305.274 362.282 C 305.161 363.077,304.885 363.176,302.474 363.282 C 300.143 363.385,299.749 363.516,299.405 364.300 L 299.010 365.200 202.933 365.200 L 106.856 365.200 106.728 364.300 C 106.607 363.451,106.391 363.393,102.940 363.286 C 99.425 363.176,99.270 363.132,99.032 362.186 C 98.816 361.324,98.562 361.200,97.020 361.200 C 95.495 361.200,95.238 361.078,95.128 360.300 C 95.037 359.662,94.687 359.364,93.925 359.276 C 93.174 359.189,92.812 358.889,92.725 358.280 C 92.656 357.797,92.255 357.342,91.826 357.260 C 90.963 357.096,88.800 355.089,88.800 354.453 C 88.800 354.229,88.466 353.810,88.057 353.523 C 87.649 353.235,87.187 352.595,87.030 352.100 C 86.874 351.604,86.422 351.200,86.024 351.200 C 85.493 351.200,85.236 350.783,85.050 349.622 C 84.911 348.754,84.462 347.809,84.052 347.521 C 83.485 347.124,83.264 346.349,83.134 344.294 C 82.992 342.073,82.804 341.478,82.081 340.971 C 80.810 340.082,80.676 317.030,81.939 316.700 C 82.826 316.468,83.200 314.882,83.200 311.350 C 83.200 308.897,83.238 308.800,84.200 308.800 C 84.995 308.800,85.200 308.599,85.200 307.820 C 85.200 307.281,85.444 306.696,85.742 306.520 C 86.470 306.090,87.200 304.641,87.200 303.626 C 87.200 303.012,87.456 302.800,88.200 302.800 C 89.000 302.800,89.200 302.600,89.200 301.800 C 89.200 301.000,89.400 300.800,90.200 300.800 C 91.000 300.800,91.200 300.600,91.200 299.800 C 91.200 299.000,91.400 298.800,92.200 298.800 C 93.000 298.800,93.200 298.600,93.200 297.800 C 93.200 296.882,93.347 296.800,94.992 296.800 C 96.571 296.800,96.815 296.681,97.036 295.800 C 97.260 294.906,97.492 294.800,99.214 294.800 C 100.794 294.800,101.284 294.620,101.929 293.800 L 102.715 292.800 197.958 292.800 L 293.200 292.800 293.195 171.900 C 293.189 47.208,293.209 49.200,291.953 49.200 C 291.275 49.200,291.200 48.864,291.200 45.833 C 291.200 41.980,290.999 41.200,290.005 41.200 C 289.423 41.200,289.264 40.761,289.118 38.741 C 288.980 36.832,288.745 36.123,288.070 35.576 C 287.592 35.189,287.200 34.538,287.200 34.131 C 287.200 33.723,286.796 33.212,286.302 32.995 C 285.809 32.778,285.352 32.240,285.287 31.800 C 284.971 29.657,284.748 29.200,284.020 29.200 C 283.532 29.200,283.209 28.875,283.128 28.300 C 283.046 27.722,282.678 27.354,282.100 27.272 C 281.449 27.180,281.200 26.876,281.200 26.172 C 281.200 25.409,280.991 25.200,280.228 25.200 C 279.524 25.200,279.220 24.951,279.128 24.300 C 279.047 23.730,278.679 23.354,278.125 23.275 C 277.579 23.198,277.202 22.821,277.125 22.275 C 277.034 21.642,276.677 21.363,275.831 21.267 C 275.189 21.194,274.321 20.699,273.902 20.167 C 273.285 19.381,272.777 19.200,271.199 19.200 C 269.488 19.200,269.240 19.092,269.128 18.300 L 269.000 17.400 182.100 17.299 L 95.200 17.198 95.200 18.199 M258.164 37.800 C 258.966 38.602,259.562 38.800,261.182 38.800 C 263.068 38.800,263.200 38.865,263.200 39.800 C 263.200 40.600,263.400 40.800,264.200 40.800 C 265.000 40.800,265.200 41.000,265.200 41.800 C 265.200 42.600,265.400 42.800,266.200 42.800 C 267.133 42.800,267.200 42.933,267.200 44.800 C 267.200 46.667,267.267 46.800,268.200 46.800 C 269.178 46.800,269.200 46.867,269.200 49.800 C 269.200 52.733,269.222 52.800,270.200 52.800 L 271.200 52.800 271.200 161.999 L 271.200 271.198 184.500 271.299 L 97.800 271.400 97.405 272.300 C 97.048 273.114,96.734 273.200,94.105 273.200 C 91.273 273.200,91.200 273.225,91.200 274.200 C 91.200 275.135,91.068 275.200,89.182 275.200 C 87.562 275.200,86.966 275.398,86.164 276.200 C 85.614 276.750,84.722 277.200,84.182 277.200 C 83.401 277.200,83.200 277.405,83.200 278.200 C 83.200 279.000,83.000 279.200,82.200 279.200 L 81.200 279.200 81.200 170.800 C 81.200 95.292,81.328 62.400,81.620 62.400 C 82.372 62.400,83.200 59.683,83.200 57.213 C 83.200 55.116,83.299 54.800,83.953 54.800 C 84.751 54.800,85.185 53.784,85.195 51.900 C 85.199 50.995,85.377 50.800,86.200 50.800 C 86.992 50.800,87.200 50.598,87.200 49.828 C 87.200 49.124,87.449 48.820,88.100 48.728 C 88.670 48.647,89.046 48.279,89.125 47.725 C 89.202 47.179,89.579 46.802,90.125 46.725 C 90.679 46.646,91.047 46.270,91.128 45.700 C 91.220 45.049,91.524 44.800,92.228 44.800 C 92.992 44.800,93.200 44.591,93.200 43.823 C 93.200 42.960,93.398 42.832,94.900 42.723 C 96.300 42.622,96.622 42.445,96.725 41.721 C 96.831 40.979,97.144 40.823,98.725 40.721 C 100.321 40.618,100.619 40.466,100.728 39.700 C 100.847 38.860,101.052 38.800,103.784 38.800 C 106.575 38.800,106.725 38.753,106.964 37.800 L 107.215 36.800 182.189 36.800 L 257.164 36.800 258.164 37.800 M105.200 154.999 L 105.200 248.800 176.551 248.800 C 236.093 248.800,247.976 248.710,248.352 248.258 C 248.683 247.859,248.775 223.087,248.701 154.558 L 248.600 61.400 176.900 61.299 L 105.200 61.198 105.200 154.999 M107.829 317.829 C 107.483 318.174,107.200 318.624,107.200 318.829 C 107.200 319.033,106.750 319.200,106.200 319.200 C 105.400 319.200,105.200 319.400,105.200 320.200 C 105.200 321.000,105.000 321.200,104.200 321.200 L 103.200 321.200 103.200 329.000 L 103.200 336.800 104.200 336.800 C 105.000 336.800,105.200 337.000,105.200 337.801 L 105.200 338.802 198.864 338.701 L 292.528 338.600 292.972 337.000 C 293.249 336.003,293.753 335.251,294.309 335.005 C 296.219 334.159,295.452 319.652,293.476 319.272 C 293.089 319.197,292.337 318.700,291.804 318.168 L 290.836 317.200 199.647 317.200 C 117.280 317.200,108.396 317.261,107.829 317.829 " stroke="none" fill="#000000" fill-rule="evenodd"></path><path id="path1" d="M95.200 18.199 C 95.200 19.178,95.134 19.200,92.200 19.200 C 89.267 19.200,89.200 19.222,89.200 20.200 C 89.200 21.133,89.067 21.200,87.200 21.200 C 85.345 21.200,85.200 21.271,85.200 22.178 C 85.200 23.061,85.015 23.168,83.300 23.278 C 81.679 23.382,81.381 23.532,81.272 24.300 C 81.180 24.951,80.876 25.200,80.172 25.200 C 79.402 25.200,79.200 25.408,79.200 26.200 C 79.200 26.950,78.989 27.200,78.358 27.200 C 77.894 27.200,77.180 27.626,76.770 28.148 C 76.360 28.669,75.493 29.201,74.844 29.331 C 74.195 29.461,73.562 29.891,73.436 30.287 C 73.310 30.683,72.801 31.186,72.304 31.404 C 71.747 31.648,71.352 32.219,71.274 32.891 C 71.205 33.491,70.710 34.327,70.174 34.749 C 69.638 35.170,69.200 35.894,69.200 36.358 C 69.200 36.989,68.950 37.200,68.200 37.200 C 67.408 37.200,67.200 37.402,67.200 38.172 C 67.200 38.876,66.951 39.180,66.300 39.272 C 65.532 39.381,65.382 39.679,65.278 41.300 C 65.168 43.015,65.061 43.200,64.178 43.200 C 63.272 43.200,63.200 43.346,63.200 45.182 C 63.200 46.762,62.998 47.366,62.200 48.164 C 61.240 49.123,61.200 49.364,61.200 54.154 C 61.200 59.025,61.178 59.147,60.300 59.272 L 59.400 59.400 59.400 204.000 L 59.400 348.600 60.300 348.728 C 61.164 348.851,61.200 349.013,61.200 352.828 C 61.200 356.798,61.200 356.800,62.200 356.800 C 63.133 356.800,63.200 356.933,63.200 358.800 C 63.200 360.667,63.267 360.800,64.200 360.800 C 65.133 360.800,65.200 360.933,65.200 362.800 C 65.200 364.667,65.267 364.800,66.200 364.800 C 67.000 364.800,67.200 365.000,67.200 365.800 C 67.200 366.600,67.400 366.800,68.200 366.800 C 68.914 366.800,69.200 367.016,69.200 367.557 C 69.200 368.540,73.460 372.800,74.443 372.800 C 74.984 372.800,75.200 373.086,75.200 373.800 C 75.200 374.600,75.400 374.800,76.200 374.800 C 77.000 374.800,77.200 375.000,77.200 375.800 C 77.200 376.592,77.402 376.800,78.172 376.800 C 78.876 376.800,79.180 377.049,79.272 377.700 C 79.381 378.468,79.679 378.618,81.300 378.722 C 83.015 378.832,83.200 378.939,83.200 379.822 C 83.200 380.729,83.345 380.800,85.200 380.800 C 87.067 380.800,87.200 380.867,87.200 381.800 C 87.200 382.727,87.340 382.800,89.105 382.800 C 90.697 382.800,91.075 382.948,91.405 383.700 C 91.766 384.522,92.107 384.610,95.370 384.717 C 98.569 384.821,99.034 384.935,99.851 385.817 L 100.763 386.802 200.682 386.701 L 300.600 386.600 300.728 385.700 C 300.853 384.819,300.968 384.800,306.047 384.800 C 311.070 384.800,311.268 384.768,312.165 383.800 C 312.891 383.017,313.485 382.800,314.903 382.800 C 316.488 382.800,316.744 382.679,316.958 381.824 C 317.155 381.040,317.497 380.824,318.702 380.724 C 319.792 380.634,320.305 380.360,320.587 379.718 C 320.811 379.208,321.401 378.786,321.987 378.718 C 322.687 378.636,323.039 378.322,323.128 377.700 C 323.220 377.049,323.524 376.800,324.228 376.800 C 324.998 376.800,325.200 376.592,325.200 375.800 C 325.200 375.000,325.400 374.800,326.200 374.800 C 327.000 374.800,327.200 374.600,327.200 373.800 C 327.200 373.000,327.400 372.800,328.200 372.800 C 328.992 372.800,329.200 372.598,329.200 371.828 C 329.200 371.124,329.449 370.820,330.100 370.728 C 330.663 370.648,331.046 370.279,331.122 369.741 C 331.190 369.268,331.581 368.794,331.991 368.686 C 332.524 368.547,332.816 367.969,333.011 366.668 C 333.229 365.214,333.458 364.820,334.142 364.722 C 334.861 364.620,335.020 364.292,335.122 362.700 C 335.220 361.167,335.386 360.800,335.979 360.800 C 336.941 360.800,337.200 360.035,337.200 357.195 C 337.200 355.074,337.284 354.844,338.100 354.728 C 338.981 354.603,339.002 354.476,339.111 348.689 C 339.209 343.425,339.308 342.692,340.011 341.989 C 341.266 340.734,341.256 77.200,340.000 77.200 C 339.290 77.200,339.200 76.933,339.200 74.833 C 339.200 71.969,338.943 71.200,337.985 71.200 C 337.533 71.200,337.207 70.858,337.128 70.300 C 337.034 69.640,336.688 69.364,335.831 69.267 C 335.189 69.194,334.321 68.699,333.902 68.167 C 332.726 66.671,325.669 66.695,324.164 68.200 C 323.614 68.750,322.722 69.200,322.182 69.200 C 321.401 69.200,321.200 69.405,321.200 70.200 C 321.200 71.000,321.000 71.200,320.200 71.200 L 319.200 71.200 319.200 205.172 L 319.200 339.144 318.300 339.272 C 317.430 339.396,317.396 339.563,317.288 344.274 C 317.180 348.964,317.142 349.152,316.288 349.274 C 315.536 349.381,315.381 349.687,315.279 351.275 C 315.177 352.856,315.021 353.169,314.279 353.275 C 313.536 353.381,313.381 353.693,313.278 355.300 C 313.168 357.015,313.061 357.200,312.178 357.200 C 311.401 357.200,311.200 357.406,311.200 358.200 C 311.200 359.000,311.000 359.200,310.200 359.200 C 309.406 359.200,309.200 359.401,309.200 360.178 C 309.200 361.061,309.015 361.168,307.300 361.278 C 305.691 361.381,305.381 361.535,305.274 362.282 C 305.161 363.077,304.885 363.176,302.474 363.282 C 300.143 363.385,299.749 363.516,299.405 364.300 L 299.010 365.200 202.933 365.200 L 106.856 365.200 106.728 364.300 C 106.607 363.451,106.391 363.393,102.940 363.286 C 99.425 363.176,99.270 363.132,99.032 362.186 C 98.816 361.324,98.562 361.200,97.020 361.200 C 95.495 361.200,95.238 361.078,95.128 360.300 C 95.037 359.662,94.687 359.364,93.925 359.276 C 93.174 359.189,92.812 358.889,92.725 358.280 C 92.656 357.797,92.255 357.342,91.826 357.260 C 90.963 357.096,88.800 355.089,88.800 354.453 C 88.800 354.229,88.466 353.810,88.057 353.523 C 87.649 353.235,87.187 352.595,87.030 352.100 C 86.874 351.604,86.422 351.200,86.024 351.200 C 85.493 351.200,85.236 350.783,85.050 349.622 C 84.911 348.754,84.462 347.809,84.052 347.521 C 83.485 347.124,83.264 346.349,83.134 344.294 C 82.992 342.073,82.804 341.478,82.081 340.971 C 80.810 340.082,80.676 317.030,81.939 316.700 C 82.826 316.468,83.200 314.882,83.200 311.350 C 83.200 308.897,83.238 308.800,84.200 308.800 C 84.995 308.800,85.200 308.599,85.200 307.820 C 85.200 307.281,85.444 306.696,85.742 306.520 C 86.470 306.090,87.200 304.641,87.200 303.626 C 87.200 303.012,87.456 302.800,88.200 302.800 C 89.000 302.800,89.200 302.600,89.200 301.800 C 89.200 301.000,89.400 300.800,90.200 300.800 C 91.000 300.800,91.200 300.600,91.200 299.800 C 91.200 299.000,91.400 298.800,92.200 298.800 C 93.000 298.800,93.200 298.600,93.200 297.800 C 93.200 296.882,93.347 296.800,94.992 296.800 C 96.571 296.800,96.815 296.681,97.036 295.800 C 97.260 294.906,97.492 294.800,99.214 294.800 C 100.794 294.800,101.284 294.620,101.929 293.800 L 102.715 292.800 197.958 292.800 L 293.200 292.800 293.195 171.900 C 293.189 47.208,293.209 49.200,291.953 49.200 C 291.275 49.200,291.200 48.864,291.200 45.833 C 291.200 41.980,290.999 41.200,290.005 41.200 C 289.423 41.200,289.264 40.761,289.118 38.741 C 288.980 36.832,288.745 36.123,288.070 35.576 C 287.592 35.189,287.200 34.538,287.200 34.131 C 287.200 33.723,286.796 33.212,286.302 32.995 C 285.809 32.778,285.352 32.240,285.287 31.800 C 284.971 29.657,284.748 29.200,284.020 29.200 C 283.532 29.200,283.209 28.875,283.128 28.300 C 283.046 27.722,282.678 27.354,282.100 27.272 C 281.449 27.180,281.200 26.876,281.200 26.172 C 281.200 25.409,280.991 25.200,280.228 25.200 C 279.524 25.200,279.220 24.951,279.128 24.300 C 279.047 23.730,278.679 23.354,278.125 23.275 C 277.579 23.198,277.202 22.821,277.125 22.275 C 277.034 21.642,276.677 21.363,275.831 21.267 C 275.189 21.194,274.321 20.699,273.902 20.167 C 273.285 19.381,272.777 19.200,271.199 19.200 C 269.488 19.200,269.240 19.092,269.128 18.300 L 269.000 17.400 182.100 17.299 L 95.200 17.198 95.200 18.199 M258.164 37.800 C 258.966 38.602,259.562 38.800,261.182 38.800 C 263.068 38.800,263.200 38.865,263.200 39.800 C 263.200 40.600,263.400 40.800,264.200 40.800 C 265.000 40.800,265.200 41.000,265.200 41.800 C 265.200 42.600,265.400 42.800,266.200 42.800 C 267.133 42.800,267.200 42.933,267.200 44.800 C 267.200 46.667,267.267 46.800,268.200 46.800 C 269.178 46.800,269.200 46.867,269.200 49.800 C 269.200 52.733,269.222 52.800,270.200 52.800 L 271.200 52.800 271.200 161.999 L 271.200 271.198 184.500 271.299 L 97.800 271.400 97.405 272.300 C 97.048 273.114,96.734 273.200,94.105 273.200 C 91.273 273.200,91.200 273.225,91.200 274.200 C 91.200 275.135,91.068 275.200,89.182 275.200 C 87.562 275.200,86.966 275.398,86.164 276.200 C 85.614 276.750,84.722 277.200,84.182 277.200 C 83.401 277.200,83.200 277.405,83.200 278.200 C 83.200 279.000,83.000 279.200,82.200 279.200 L 81.200 279.200 81.200 170.800 C 81.200 95.292,81.328 62.400,81.620 62.400 C 82.372 62.400,83.200 59.683,83.200 57.213 C 83.200 55.116,83.299 54.800,83.953 54.800 C 84.751 54.800,85.185 53.784,85.195 51.900 C 85.199 50.995,85.377 50.800,86.200 50.800 C 86.992 50.800,87.200 50.598,87.200 49.828 C 87.200 49.124,87.449 48.820,88.100 48.728 C 88.670 48.647,89.046 48.279,89.125 47.725 C 89.202 47.179,89.579 46.802,90.125 46.725 C 90.679 46.646,91.047 46.270,91.128 45.700 C 91.220 45.049,91.524 44.800,92.228 44.800 C 92.992 44.800,93.200 44.591,93.200 43.823 C 93.200 42.960,93.398 42.832,94.900 42.723 C 96.300 42.622,96.622 42.445,96.725 41.721 C 96.831 40.979,97.144 40.823,98.725 40.721 C 100.321 40.618,100.619 40.466,100.728 39.700 C 100.847 38.860,101.052 38.800,103.784 38.800 C 106.575 38.800,106.725 38.753,106.964 37.800 L 107.215 36.800 182.189 36.800 L 257.164 36.800 258.164 37.800 M105.200 154.999 L 105.200 248.800 176.551 248.800 C 236.093 248.800,247.976 248.710,248.352 248.258 C 248.683 247.859,248.775 223.087,248.701 154.558 L 248.600 61.400 176.900 61.299 L 105.200 61.198 105.200 154.999 M107.829 317.829 C 107.483 318.174,107.200 318.624,107.200 318.829 C 107.200 319.033,106.750 319.200,106.200 319.200 C 105.400 319.200,105.200 319.400,105.200 320.200 C 105.200 321.000,105.000 321.200,104.200 321.200 L 103.200 321.200 103.200 329.000 L 103.200 336.800 104.200 336.800 C 105.000 336.800,105.200 337.000,105.200 337.801 L 105.200 338.802 198.864 338.701 L 292.528 338.600 292.972 337.000 C 293.249 336.003,293.753 335.251,294.309 335.005 C 296.219 334.159,295.452 319.652,293.476 319.272 C 293.089 319.197,292.337 318.700,291.804 318.168 L 290.836 317.200 199.647 317.200 C 117.280 317.200,108.396 317.261,107.829 317.829 " stroke="none" fill="#000000" fill-rule="evenodd"></path><path id="path2" d="M95.200 18.199 C 95.200 19.178,95.134 19.200,92.200 19.200 C 89.267 19.200,89.200 19.222,89.200 20.200 C 89.200 21.133,89.067 21.200,87.200 21.200 C 85.345 21.200,85.200 21.271,85.200 22.178 C 85.200 23.061,85.015 23.168,83.300 23.278 C 81.679 23.382,81.381 23.532,81.272 24.300 C 81.180 24.951,80.876 25.200,80.172 25.200 C 79.402 25.200,79.200 25.408,79.200 26.200 C 79.200 26.950,78.989 27.200,78.358 27.200 C 77.894 27.200,77.180 27.626,76.770 28.148 C 76.360 28.669,75.493 29.201,74.844 29.331 C 74.195 29.461,73.562 29.891,73.436 30.287 C 73.310 30.683,72.801 31.186,72.304 31.404 C 71.747 31.648,71.352 32.219,71.274 32.891 C 71.205 33.491,70.710 34.327,70.174 34.749 C 69.638 35.170,69.200 35.894,69.200 36.358 C 69.200 36.989,68.950 37.200,68.200 37.200 C 67.408 37.200,67.200 37.402,67.200 38.172 C 67.200 38.876,66.951 39.180,66.300 39.272 C 65.532 39.381,65.382 39.679,65.278 41.300 C 65.168 43.015,65.061 43.200,64.178 43.200 C 63.272 43.200,63.200 43.346,63.200 45.182 C 63.200 46.762,62.998 47.366,62.200 48.164 C 61.240 49.123,61.200 49.364,61.200 54.154 C 61.200 59.025,61.178 59.147,60.300 59.272 L 59.400 59.400 59.400 204.000 L 59.400 348.600 60.300 348.728 C 61.164 348.851,61.200 349.013,61.200 352.828 C 61.200 356.798,61.200 356.800,62.200 356.800 C 63.133 356.800,63.200 356.933,63.200 358.800 C 63.200 360.667,63.267 360.800,64.200 360.800 C 65.133 360.800,65.200 360.933,65.200 362.800 C 65.200 364.667,65.267 364.800,66.200 364.800 C 67.000 364.800,67.200 365.000,67.200 365.800 C 67.200 366.600,67.400 366.800,68.200 366.800 C 68.914 366.800,69.200 367.016,69.200 367.557 C 69.200 368.540,73.460 372.800,74.443 372.800 C 74.984 372.800,75.200 373.086,75.200 373.800 C 75.200 374.600,75.400 374.800,76.200 374.800 C 77.000 374.800,77.200 375.000,77.200 375.800 C 77.200 376.592,77.402 376.800,78.172 376.800 C 78.876 376.800,79.180 377.049,79.272 377.700 C 79.381 378.468,79.679 378.618,81.300 378.722 C 83.015 378.832,83.200 378.939,83.200 379.822 C 83.200 380.729,83.345 380.800,85.200 380.800 C 87.067 380.800,87.200 380.867,87.200 381.800 C 87.200 382.727,87.340 382.800,89.105 382.800 C 90.697 382.800,91.075 382.948,91.405 383.700 C 91.766 384.522,92.107 384.610,95.370 384.717 C 98.569 384.821,99.034 384.935,99.851 385.817 L 100.763 386.802 200.682 386.701 L 300.600 386.600 300.728 385.700 C 300.853 384.819,300.968 384.800,306.047 384.800 C 311.070 384.800,311.268 384.768,312.165 383.800 C 312.891 383.017,313.485 382.800,314.903 382.800 C 316.488 382.800,316.744 382.679,316.958 381.824 C 317.155 381.040,317.497 380.824,318.702 380.724 C 319.792 380.634,320.305 380.360,320.587 379.718 C 320.811 379.208,321.401 378.786,321.987 378.718 C 322.687 378.636,323.039 378.322,323.128 377.700 C 323.220 377.049,323.524 376.800,324.228 376.800 C 324.998 376.800,325.200 376.592,325.200 375.800 C 325.200 375.000,325.400 374.800,326.200 374.800 C 327.000 374.800,327.200 374.600,327.200 373.800 C 327.200 373.000,327.400 372.800,328.200 372.800 C 328.992 372.800,329.200 372.598,329.200 371.828 C 329.200 371.124,329.449 370.820,330.100 370.728 C 330.663 370.648,331.046 370.279,331.122 369.741 C 331.190 369.268,331.581 368.794,331.991 368.686 C 332.524 368.547,332.816 367.969,333.011 366.668 C 333.229 365.214,333.458 364.820,334.142 364.722 C 334.861 364.620,335.020 364.292,335.122 362.700 C 335.220 361.167,335.386 360.800,335.979 360.800 C 336.941 360.800,337.200 360.035,337.200 357.195 C 337.200 355.074,337.284 354.844,338.100 354.728 C 338.981 354.603,339.002 354.476,339.111 348.689 C 339.209 343.425,339.308 342.692,340.011 341.989 C 341.266 340.734,341.256 77.200,340.000 77.200 C 339.290 77.200,339.200 76.933,339.200 74.833 C 339.200 71.969,338.943 71.200,337.985 71.200 C 337.533 71.200,337.207 70.858,337.128 70.300 C 337.034 69.640,336.688 69.364,335.831 69.267 C 335.189 69.194,334.321 68.699,333.902 68.167 C 332.726 66.671,325.669 66.695,324.164 68.200 C 323.614 68.750,322.722 69.200,322.182 69.200 C 321.401 69.200,321.200 69.405,321.200 70.200 C 321.200 71.000,321.000 71.200,320.200 71.200 L 319.200 71.200 319.200 205.172 L 319.200 339.144 318.300 339.272 C 317.430 339.396,317.396 339.563,317.288 344.274 C 317.180 348.964,317.142 349.152,316.288 349.274 C 315.536 349.381,315.381 349.687,315.279 351.275 C 315.177 352.856,315.021 353.169,314.279 353.275 C 313.536 353.381,313.381 353.693,313.278 355.300 C 313.168 357.015,313.061 357.200,312.178 357.200 C 311.401 357.200,311.200 357.406,311.200 358.200 C 311.200 359.000,311.000 359.200,310.200 359.200 C 309.406 359.200,309.200 359.401,309.200 360.178 C 309.200 361.061,309.015 361.168,307.300 361.278 C 305.691 361.381,305.381 361.535,305.274 362.282 C 305.161 363.077,304.885 363.176,302.474 363.282 C 300.143 363.385,299.749 363.516,299.405 364.300 L 299.010 365.200 202.933 365.200 L 106.856 365.200 106.728 364.300 C 106.607 363.451,106.391 363.393,102.940 363.286 C 99.425 363.176,99.270 363.132,99.032 362.186 C 98.816 361.324,98.562 361.200,97.020 361.200 C 95.495 361.200,95.238 361.078,95.128 360.300 C 95.037 359.662,94.687 359.364,93.925 359.276 C 93.174 359.189,92.812 358.889,92.725 358.280 C 92.656 357.797,92.255 357.342,91.826 357.260 C 90.963 357.096,88.800 355.089,88.800 354.453 C 88.800 354.229,88.466 353.810,88.057 353.523 C 87.649 353.235,87.187 352.595,87.030 352.100 C 86.874 351.604,86.422 351.200,86.024 351.200 C 85.493 351.200,85.236 350.783,85.050 349.622 C 84.911 348.754,84.462 347.809,84.052 347.521 C 83.485 347.124,83.264 346.349,83.134 344.294 C 82.992 342.073,82.804 341.478,82.081 340.971 C 80.810 340.082,80.676 317.030,81.939 316.700 C 82.826 316.468,83.200 314.882,83.200 311.350 C 83.200 308.897,83.238 308.800,84.200 308.800 C 84.995 308.800,85.200 308.599,85.200 307.820 C 85.200 307.281,85.444 306.696,85.742 306.520 C 86.470 306.090,87.200 304.641,87.200 303.626 C 87.200 303.012,87.456 302.800,88.200 302.800 C 89.000 302.800,89.200 302.600,89.200 301.800 C 89.200 301.000,89.400 300.800,90.200 300.800 C 91.000 300.800,91.200 300.600,91.200 299.800 C 91.200 299.000,91.400 298.800,92.200 298.800 C 93.000 298.800,93.200 298.600,93.200 297.800 C 93.200 296.882,93.347 296.800,94.992 296.800 C 96.571 296.800,96.815 296.681,97.036 295.800 C 97.260 294.906,97.492 294.800,99.214 294.800 C 100.794 294.800,101.284 294.620,101.929 293.800 L 102.715 292.800 197.958 292.800 L 293.200 292.800 293.195 171.900 C 293.189 47.208,293.209 49.200,291.953 49.200 C 291.275 49.200,291.200 48.864,291.200 45.833 C 291.200 41.980,290.999 41.200,290.005 41.200 C 289.423 41.200,289.264 40.761,289.118 38.741 C 288.980 36.832,288.745 36.123,288.070 35.576 C 287.592 35.189,287.200 34.538,287.200 34.131 C 287.200 33.723,286.796 33.212,286.302 32.995 C 285.809 32.778,285.352 32.240,285.287 31.800 C 284.971 29.657,284.748 29.200,284.020 29.200 C 283.532 29.200,283.209 28.875,283.128 28.300 C 283.046 27.722,282.678 27.354,282.100 27.272 C 281.449 27.180,281.200 26.876,281.200 26.172 C 281.200 25.409,280.991 25.200,280.228 25.200 C 279.524 25.200,279.220 24.951,279.128 24.300 C 279.047 23.730,278.679 23.354,278.125 23.275 C 277.579 23.198,277.202 22.821,277.125 22.275 C 277.034 21.642,276.677 21.363,275.831 21.267 C 275.189 21.194,274.321 20.699,273.902 20.167 C 273.285 19.381,272.777 19.200,271.199 19.200 C 269.488 19.200,269.240 19.092,269.128 18.300 L 269.000 17.400 182.100 17.299 L 95.200 17.198 95.200 18.199 M258.164 37.800 C 258.966 38.602,259.562 38.800,261.182 38.800 C 263.068 38.800,263.200 38.865,263.200 39.800 C 263.200 40.600,263.400 40.800,264.200 40.800 C 265.000 40.800,265.200 41.000,265.200 41.800 C 265.200 42.600,265.400 42.800,266.200 42.800 C 267.133 42.800,267.200 42.933,267.200 44.800 C 267.200 46.667,267.267 46.800,268.200 46.800 C 269.178 46.800,269.200 46.867,269.200 49.800 C 269.200 52.733,269.222 52.800,270.200 52.800 L 271.200 52.800 271.200 161.999 L 271.200 271.198 184.500 271.299 L 97.800 271.400 97.405 272.300 C 97.048 273.114,96.734 273.200,94.105 273.200 C 91.273 273.200,91.200 273.225,91.200 274.200 C 91.200 275.135,91.068 275.200,89.182 275.200 C 87.562 275.200,86.966 275.398,86.164 276.200 C 85.614 276.750,84.722 277.200,84.182 277.200 C 83.401 277.200,83.200 277.405,83.200 278.200 C 83.200 279.000,83.000 279.200,82.200 279.200 L 81.200 279.200 81.200 170.800 C 81.200 95.292,81.328 62.400,81.620 62.400 C 82.372 62.400,83.200 59.683,83.200 57.213 C 83.200 55.116,83.299 54.800,83.953 54.800 C 84.751 54.800,85.185 53.784,85.195 51.900 C 85.199 50.995,85.377 50.800,86.200 50.800 C 86.992 50.800,87.200 50.598,87.200 49.828 C 87.200 49.124,87.449 48.820,88.100 48.728 C 88.670 48.647,89.046 48.279,89.125 47.725 C 89.202 47.179,89.579 46.802,90.125 46.725 C 90.679 46.646,91.047 46.270,91.128 45.700 C 91.220 45.049,91.524 44.800,92.228 44.800 C 92.992 44.800,93.200 44.591,93.200 43.823 C 93.200 42.960,93.398 42.832,94.900 42.723 C 96.300 42.622,96.622 42.445,96.725 41.721 C 96.831 40.979,97.144 40.823,98.725 40.721 C 100.321 40.618,100.619 40.466,100.728 39.700 C 100.847 38.860,101.052 38.800,103.784 38.800 C 106.575 38.800,106.725 38.753,106.964 37.800 L 107.215 36.800 182.189 36.800 L 257.164 36.800 258.164 37.800 M105.200 154.999 L 105.200 248.800 176.551 248.800 C 236.093 248.800,247.976 248.710,248.352 248.258 C 248.683 247.859,248.775 223.087,248.701 154.558 L 248.600 61.400 176.900 61.299 L 105.200 61.198 105.200 154.999 M107.829 317.829 C 107.483 318.174,107.200 318.624,107.200 318.829 C 107.200 319.033,106.750 319.200,106.200 319.200 C 105.400 319.200,105.200 319.400,105.200 320.200 C 105.200 321.000,105.000 321.200,104.200 321.200 L 103.200 321.200 103.200 329.000 L 103.200 336.800 104.200 336.800 C 105.000 336.800,105.200 337.000,105.200 337.801 L 105.200 338.802 198.864 338.701 L 292.528 338.600 292.972 337.000 C 293.249 336.003,293.753 335.251,294.309 335.005 C 296.219 334.159,295.452 319.652,293.476 319.272 C 293.089 319.197,292.337 318.700,291.804 318.168 L 290.836 317.200 199.647 317.200 C 117.280 317.200,108.396 317.261,107.829 317.829 " stroke="none" fill="#000000" fill-rule="evenodd"></path><path id="path3" d="M95.200 18.199 C 95.200 19.178,95.134 19.200,92.200 19.200 C 89.267 19.200,89.200 19.222,89.200 20.200 C 89.200 21.133,89.067 21.200,87.200 21.200 C 85.345 21.200,85.200 21.271,85.200 22.178 C 85.200 23.061,85.015 23.168,83.300 23.278 C 81.679 23.382,81.381 23.532,81.272 24.300 C 81.180 24.951,80.876 25.200,80.172 25.200 C 79.402 25.200,79.200 25.408,79.200 26.200 C 79.200 26.950,78.989 27.200,78.358 27.200 C 77.894 27.200,77.180 27.626,76.770 28.148 C 76.360 28.669,75.493 29.201,74.844 29.331 C 74.195 29.461,73.562 29.891,73.436 30.287 C 73.310 30.683,72.801 31.186,72.304 31.404 C 71.747 31.648,71.352 32.219,71.274 32.891 C 71.205 33.491,70.710 34.327,70.174 34.749 C 69.638 35.170,69.200 35.894,69.200 36.358 C 69.200 36.989,68.950 37.200,68.200 37.200 C 67.408 37.200,67.200 37.402,67.200 38.172 C 67.200 38.876,66.951 39.180,66.300 39.272 C 65.532 39.381,65.382 39.679,65.278 41.300 C 65.168 43.015,65.061 43.200,64.178 43.200 C 63.272 43.200,63.200 43.346,63.200 45.182 C 63.200 46.762,62.998 47.366,62.200 48.164 C 61.240 49.123,61.200 49.364,61.200 54.154 C 61.200 59.025,61.178 59.147,60.300 59.272 L 59.400 59.400 59.400 204.000 L 59.400 348.600 60.300 348.728 C 61.164 348.851,61.200 349.013,61.200 352.828 C 61.200 356.798,61.200 356.800,62.200 356.800 C 63.133 356.800,63.200 356.933,63.200 358.800 C 63.200 360.667,63.267 360.800,64.200 360.800 C 65.133 360.800,65.200 360.933,65.200 362.800 C 65.200 364.667,65.267 364.800,66.200 364.800 C 67.000 364.800,67.200 365.000,67.200 365.800 C 67.200 366.600,67.400 366.800,68.200 366.800 C 68.914 366.800,69.200 367.016,69.200 367.557 C 69.200 368.540,73.460 372.800,74.443 372.800 C 74.984 372.800,75.200 373.086,75.200 373.800 C 75.200 374.600,75.400 374.800,76.200 374.800 C 77.000 374.800,77.200 375.000,77.200 375.800 C 77.200 376.592,77.402 376.800,78.172 376.800 C 78.876 376.800,79.180 377.049,79.272 377.700 C 79.381 378.468,79.679 378.618,81.300 378.722 C 83.015 378.832,83.200 378.939,83.200 379.822 C 83.200 380.729,83.345 380.800,85.200 380.800 C 87.067 380.800,87.200 380.867,87.200 381.800 C 87.200 382.727,87.340 382.800,89.105 382.800 C 90.697 382.800,91.075 382.948,91.405 383.700 C 91.766 384.522,92.107 384.610,95.370 384.717 C 98.569 384.821,99.034 384.935,99.851 385.817 L 100.763 386.802 200.682 386.701 L 300.600 386.600 300.728 385.700 C 300.853 384.819,300.968 384.800,306.047 384.800 C 311.070 384.800,311.268 384.768,312.165 383.800 C 312.891 383.017,313.485 382.800,314.903 382.800 C 316.488 382.800,316.744 382.679,316.958 381.824 C 317.155 381.040,317.497 380.824,318.702 380.724 C 319.792 380.634,320.305 380.360,320.587 379.718 C 320.811 379.208,321.401 378.786,321.987 378.718 C 322.687 378.636,323.039 378.322,323.128 377.700 C 323.220 377.049,323.524 376.800,324.228 376.800 C 324.998 376.800,325.200 376.592,325.200 375.800 C 325.200 375.000,325.400 374.800,326.200 374.800 C 327.000 374.800,327.200 374.600,327.200 373.800 C 327.200 373.000,327.400 372.800,328.200 372.800 C 328.992 372.800,329.200 372.598,329.200 371.828 C 329.200 371.124,329.449 370.820,330.100 370.728 C 330.663 370.648,331.046 370.279,331.122 369.741 C 331.190 369.268,331.581 368.794,331.991 368.686 C 332.524 368.547,332.816 367.969,333.011 366.668 C 333.229 365.214,333.458 364.820,334.142 364.722 C 334.861 364.620,335.020 364.292,335.122 362.700 C 335.220 361.167,335.386 360.800,335.979 360.800 C 336.941 360.800,337.200 360.035,337.200 357.195 C 337.200 355.074,337.284 354.844,338.100 354.728 C 338.981 354.603,339.002 354.476,339.111 348.689 C 339.209 343.425,339.308 342.692,340.011 341.989 C 341.266 340.734,341.256 77.200,340.000 77.200 C 339.290 77.200,339.200 76.933,339.200 74.833 C 339.200 71.969,338.943 71.200,337.985 71.200 C 337.533 71.200,337.207 70.858,337.128 70.300 C 337.034 69.640,336.688 69.364,335.831 69.267 C 335.189 69.194,334.321 68.699,333.902 68.167 C 332.726 66.671,325.669 66.695,324.164 68.200 C 323.614 68.750,322.722 69.200,322.182 69.200 C 321.401 69.200,321.200 69.405,321.200 70.200 C 321.200 71.000,321.000 71.200,320.200 71.200 L 319.200 71.200 319.200 205.172 L 319.200 339.144 318.300 339.272 C 317.430 339.396,317.396 339.563,317.288 344.274 C 317.180 348.964,317.142 349.152,316.288 349.274 C 315.536 349.381,315.381 349.687,315.279 351.275 C 315.177 352.856,315.021 353.169,314.279 353.275 C 313.536 353.381,313.381 353.693,313.278 355.300 C 313.168 357.015,313.061 357.200,312.178 357.200 C 311.401 357.200,311.200 357.406,311.200 358.200 C 311.200 359.000,311.000 359.200,310.200 359.200 C 309.406 359.200,309.200 359.401,309.200 360.178 C 309.200 361.061,309.015 361.168,307.300 361.278 C 305.691 361.381,305.381 361.535,305.274 362.282 C 305.161 363.077,304.885 363.176,302.474 363.282 C 300.143 363.385,299.749 363.516,299.405 364.300 L 299.010 365.200 202.933 365.200 L 106.856 365.200 106.728 364.300 C 106.607 363.451,106.391 363.393,102.940 363.286 C 99.425 363.176,99.270 363.132,99.032 362.186 C 98.816 361.324,98.562 361.200,97.020 361.200 C 95.495 361.200,95.238 361.078,95.128 360.300 C 95.037 359.662,94.687 359.364,93.925 359.276 C 93.174 359.189,92.812 358.889,92.725 358.280 C 92.656 357.797,92.255 357.342,91.826 357.260 C 90.963 357.096,88.800 355.089,88.800 354.453 C 88.800 354.229,88.466 353.810,88.057 353.523 C 87.649 353.235,87.187 352.595,87.030 352.100 C 86.874 351.604,86.422 351.200,86.024 351.200 C 85.493 351.200,85.236 350.783,85.050 349.622 C 84.911 348.754,84.462 347.809,84.052 347.521 C 83.485 347.124,83.264 346.349,83.134 344.294 C 82.992 342.073,82.804 341.478,82.081 340.971 C 80.810 340.082,80.676 317.030,81.939 316.700 C 82.826 316.468,83.200 314.882,83.200 311.350 C 83.200 308.897,83.238 308.800,84.200 308.800 C 84.995 308.800,85.200 308.599,85.200 307.820 C 85.200 307.281,85.444 306.696,85.742 306.520 C 86.470 306.090,87.200 304.641,87.200 303.626 C 87.200 303.012,87.456 302.800,88.200 302.800 C 89.000 302.800,89.200 302.600,89.200 301.800 C 89.200 301.000,89.400 300.800,90.200 300.800 C 91.000 300.800,91.200 300.600,91.200 299.800 C 91.200 299.000,91.400 298.800,92.200 298.800 C 93.000 298.800,93.200 298.600,93.200 297.800 C 93.200 296.882,93.347 296.800,94.992 296.800 C 96.571 296.800,96.815 296.681,97.036 295.800 C 97.260 294.906,97.492 294.800,99.214 294.800 C 100.794 294.800,101.284 294.620,101.929 293.800 L 102.715 292.800 197.958 292.800 L 293.200 292.800 293.195 171.900 C 293.189 47.208,293.209 49.200,291.953 49.200 C 291.275 49.200,291.200 48.864,291.200 45.833 C 291.200 41.980,290.999 41.200,290.005 41.200 C 289.423 41.200,289.264 40.761,289.118 38.741 C 288.980 36.832,288.745 36.123,288.070 35.576 C 287.592 35.189,287.200 34.538,287.200 34.131 C 287.200 33.723,286.796 33.212,286.302 32.995 C 285.809 32.778,285.352 32.240,285.287 31.800 C 284.971 29.657,284.748 29.200,284.020 29.200 C 283.532 29.200,283.209 28.875,283.128 28.300 C 283.046 27.722,282.678 27.354,282.100 27.272 C 281.449 27.180,281.200 26.876,281.200 26.172 C 281.200 25.409,280.991 25.200,280.228 25.200 C 279.524 25.200,279.220 24.951,279.128 24.300 C 279.047 23.730,278.679 23.354,278.125 23.275 C 277.579 23.198,277.202 22.821,277.125 22.275 C 277.034 21.642,276.677 21.363,275.831 21.267 C 275.189 21.194,274.321 20.699,273.902 20.167 C 273.285 19.381,272.777 19.200,271.199 19.200 C 269.488 19.200,269.240 19.092,269.128 18.300 L 269.000 17.400 182.100 17.299 L 95.200 17.198 95.200 18.199 M258.164 37.800 C 258.966 38.602,259.562 38.800,261.182 38.800 C 263.068 38.800,263.200 38.865,263.200 39.800 C 263.200 40.600,263.400 40.800,264.200 40.800 C 265.000 40.800,265.200 41.000,265.200 41.800 C 265.200 42.600,265.400 42.800,266.200 42.800 C 267.133 42.800,267.200 42.933,267.200 44.800 C 267.200 46.667,267.267 46.800,268.200 46.800 C 269.178 46.800,269.200 46.867,269.200 49.800 C 269.200 52.733,269.222 52.800,270.200 52.800 L 271.200 52.800 271.200 161.999 L 271.200 271.198 184.500 271.299 L 97.800 271.400 97.405 272.300 C 97.048 273.114,96.734 273.200,94.105 273.200 C 91.273 273.200,91.200 273.225,91.200 274.200 C 91.200 275.135,91.068 275.200,89.182 275.200 C 87.562 275.200,86.966 275.398,86.164 276.200 C 85.614 276.750,84.722 277.200,84.182 277.200 C 83.401 277.200,83.200 277.405,83.200 278.200 C 83.200 279.000,83.000 279.200,82.200 279.200 L 81.200 279.200 81.200 170.800 C 81.200 95.292,81.328 62.400,81.620 62.400 C 82.372 62.400,83.200 59.683,83.200 57.213 C 83.200 55.116,83.299 54.800,83.953 54.800 C 84.751 54.800,85.185 53.784,85.195 51.900 C 85.199 50.995,85.377 50.800,86.200 50.800 C 86.992 50.800,87.200 50.598,87.200 49.828 C 87.200 49.124,87.449 48.820,88.100 48.728 C 88.670 48.647,89.046 48.279,89.125 47.725 C 89.202 47.179,89.579 46.802,90.125 46.725 C 90.679 46.646,91.047 46.270,91.128 45.700 C 91.220 45.049,91.524 44.800,92.228 44.800 C 92.992 44.800,93.200 44.591,93.200 43.823 C 93.200 42.960,93.398 42.832,94.900 42.723 C 96.300 42.622,96.622 42.445,96.725 41.721 C 96.831 40.979,97.144 40.823,98.725 40.721 C 100.321 40.618,100.619 40.466,100.728 39.700 C 100.847 38.860,101.052 38.800,103.784 38.800 C 106.575 38.800,106.725 38.753,106.964 37.800 L 107.215 36.800 182.189 36.800 L 257.164 36.800 258.164 37.800 M105.200 154.999 L 105.200 248.800 176.551 248.800 C 236.093 248.800,247.976 248.710,248.352 248.258 C 248.683 247.859,248.775 223.087,248.701 154.558 L 248.600 61.400 176.900 61.299 L 105.200 61.198 105.200 154.999 M107.829 317.829 C 107.483 318.174,107.200 318.624,107.200 318.829 C 107.200 319.033,106.750 319.200,106.200 319.200 C 105.400 319.200,105.200 319.400,105.200 320.200 C 105.200 321.000,105.000 321.200,104.200 321.200 L 103.200 321.200 103.200 329.000 L 103.200 336.800 104.200 336.800 C 105.000 336.800,105.200 337.000,105.200 337.801 L 105.200 338.802 198.864 338.701 L 292.528 338.600 292.972 337.000 C 293.249 336.003,293.753 335.251,294.309 335.005 C 296.219 334.159,295.452 319.652,293.476 319.272 C 293.089 319.197,292.337 318.700,291.804 318.168 L 290.836 317.200 199.647 317.200 C 117.280 317.200,108.396 317.261,107.829 317.829 " stroke="none" fill="#000000" fill-rule="evenodd"></path><path id="path4" d="M95.200 18.199 C 95.200 19.178,95.134 19.200,92.200 19.200 C 89.267 19.200,89.200 19.222,89.200 20.200 C 89.200 21.133,89.067 21.200,87.200 21.200 C 85.345 21.200,85.200 21.271,85.200 22.178 C 85.200 23.061,85.015 23.168,83.300 23.278 C 81.679 23.382,81.381 23.532,81.272 24.300 C 81.180 24.951,80.876 25.200,80.172 25.200 C 79.402 25.200,79.200 25.408,79.200 26.200 C 79.200 26.950,78.989 27.200,78.358 27.200 C 77.894 27.200,77.180 27.626,76.770 28.148 C 76.360 28.669,75.493 29.201,74.844 29.331 C 74.195 29.461,73.562 29.891,73.436 30.287 C 73.310 30.683,72.801 31.186,72.304 31.404 C 71.747 31.648,71.352 32.219,71.274 32.891 C 71.205 33.491,70.710 34.327,70.174 34.749 C 69.638 35.170,69.200 35.894,69.200 36.358 C 69.200 36.989,68.950 37.200,68.200 37.200 C 67.408 37.200,67.200 37.402,67.200 38.172 C 67.200 38.876,66.951 39.180,66.300 39.272 C 65.532 39.381,65.382 39.679,65.278 41.300 C 65.168 43.015,65.061 43.200,64.178 43.200 C 63.272 43.200,63.200 43.346,63.200 45.182 C 63.200 46.762,62.998 47.366,62.200 48.164 C 61.240 49.123,61.200 49.364,61.200 54.154 C 61.200 59.025,61.178 59.147,60.300 59.272 L 59.400 59.400 59.400 204.000 L 59.400 348.600 60.300 348.728 C 61.164 348.851,61.200 349.013,61.200 352.828 C 61.200 356.798,61.200 356.800,62.200 356.800 C 63.133 356.800,63.200 356.933,63.200 358.800 C 63.200 360.667,63.267 360.800,64.200 360.800 C 65.133 360.800,65.200 360.933,65.200 362.800 C 65.200 364.667,65.267 364.800,66.200 364.800 C 67.000 364.800,67.200 365.000,67.200 365.800 C 67.200 366.600,67.400 366.800,68.200 366.800 C 68.914 366.800,69.200 367.016,69.200 367.557 C 69.200 368.540,73.460 372.800,74.443 372.800 C 74.984 372.800,75.200 373.086,75.200 373.800 C 75.200 374.600,75.400 374.800,76.200 374.800 C 77.000 374.800,77.200 375.000,77.200 375.800 C 77.200 376.592,77.402 376.800,78.172 376.800 C 78.876 376.800,79.180 377.049,79.272 377.700 C 79.381 378.468,79.679 378.618,81.300 378.722 C 83.015 378.832,83.200 378.939,83.200 379.822 C 83.200 380.729,83.345 380.800,85.200 380.800 C 87.067 380.800,87.200 380.867,87.200 381.800 C 87.200 382.727,87.340 382.800,89.105 382.800 C 90.697 382.800,91.075 382.948,91.405 383.700 C 91.766 384.522,92.107 384.610,95.370 384.717 C 98.569 384.821,99.034 384.935,99.851 385.817 L 100.763 386.802 200.682 386.701 L 300.600 386.600 300.728 385.700 C 300.853 384.819,300.968 384.800,306.047 384.800 C 311.070 384.800,311.268 384.768,312.165 383.800 C 312.891 383.017,313.485 382.800,314.903 382.800 C 316.488 382.800,316.744 382.679,316.958 381.824 C 317.155 381.040,317.497 380.824,318.702 380.724 C 319.792 380.634,320.305 380.360,320.587 379.718 C 320.811 379.208,321.401 378.786,321.987 378.718 C 322.687 378.636,323.039 378.322,323.128 377.700 C 323.220 377.049,323.524 376.800,324.228 376.800 C 324.998 376.800,325.200 376.592,325.200 375.800 C 325.200 375.000,325.400 374.800,326.200 374.800 C 327.000 374.800,327.200 374.600,327.200 373.800 C 327.200 373.000,327.400 372.800,328.200 372.800 C 328.992 372.800,329.200 372.598,329.200 371.828 C 329.200 371.124,329.449 370.820,330.100 370.728 C 330.663 370.648,331.046 370.279,331.122 369.741 C 331.190 369.268,331.581 368.794,331.991 368.686 C 332.524 368.547,332.816 367.969,333.011 366.668 C 333.229 365.214,333.458 364.820,334.142 364.722 C 334.861 364.620,335.020 364.292,335.122 362.700 C 335.220 361.167,335.386 360.800,335.979 360.800 C 336.941 360.800,337.200 360.035,337.200 357.195 C 337.200 355.074,337.284 354.844,338.100 354.728 C 338.981 354.603,339.002 354.476,339.111 348.689 C 339.209 343.425,339.308 342.692,340.011 341.989 C 341.266 340.734,341.256 77.200,340.000 77.200 C 339.290 77.200,339.200 76.933,339.200 74.833 C 339.200 71.969,338.943 71.200,337.985 71.200 C 337.533 71.200,337.207 70.858,337.128 70.300 C 337.034 69.640,336.688 69.364,335.831 69.267 C 335.189 69.194,334.321 68.699,333.902 68.167 C 332.726 66.671,325.669 66.695,324.164 68.200 C 323.614 68.750,322.722 69.200,322.182 69.200 C 321.401 69.200,321.200 69.405,321.200 70.200 C 321.200 71.000,321.000 71.200,320.200 71.200 L 319.200 71.200 319.200 205.172 L 319.200 339.144 318.300 339.272 C 317.430 339.396,317.396 339.563,317.288 344.274 C 317.180 348.964,317.142 349.152,316.288 349.274 C 315.536 349.381,315.381 349.687,315.279 351.275 C 315.177 352.856,315.021 353.169,314.279 353.275 C 313.536 353.381,313.381 353.693,313.278 355.300 C 313.168 357.015,313.061 357.200,312.178 357.200 C 311.401 357.200,311.200 357.406,311.200 358.200 C 311.200 359.000,311.000 359.200,310.200 359.200 C 309.406 359.200,309.200 359.401,309.200 360.178 C 309.200 361.061,309.015 361.168,307.300 361.278 C 305.691 361.381,305.381 361.535,305.274 362.282 C 305.161 363.077,304.885 363.176,302.474 363.282 C 300.143 363.385,299.749 363.516,299.405 364.300 L 299.010 365.200 202.933 365.200 L 106.856 365.200 106.728 364.300 C 106.607 363.451,106.391 363.393,102.940 363.286 C 99.425 363.176,99.270 363.132,99.032 362.186 C 98.816 361.324,98.562 361.200,97.020 361.200 C 95.495 361.200,95.238 361.078,95.128 360.300 C 95.037 359.662,94.687 359.364,93.925 359.276 C 93.174 359.189,92.812 358.889,92.725 358.280 C 92.656 357.797,92.255 357.342,91.826 357.260 C 90.963 357.096,88.800 355.089,88.800 354.453 C 88.800 354.229,88.466 353.810,88.057 353.523 C 87.649 353.235,87.187 352.595,87.030 352.100 C 86.874 351.604,86.422 351.200,86.024 351.200 C 85.493 351.200,85.236 350.783,85.050 349.622 C 84.911 348.754,84.462 347.809,84.052 347.521 C 83.485 347.124,83.264 346.349,83.134 344.294 C 82.992 342.073,82.804 341.478,82.081 340.971 C 80.810 340.082,80.676 317.030,81.939 316.700 C 82.826 316.468,83.200 314.882,83.200 311.350 C 83.200 308.897,83.238 308.800,84.200 308.800 C 84.995 308.800,85.200 308.599,85.200 307.820 C 85.200 307.281,85.444 306.696,85.742 306.520 C 86.470 306.090,87.200 304.641,87.200 303.626 C 87.200 303.012,87.456 302.800,88.200 302.800 C 89.000 302.800,89.200 302.600,89.200 301.800 C 89.200 301.000,89.400 300.800,90.200 300.800 C 91.000 300.800,91.200 300.600,91.200 299.800 C 91.200 299.000,91.400 298.800,92.200 298.800 C 93.000 298.800,93.200 298.600,93.200 297.800 C 93.200 296.882,93.347 296.800,94.992 296.800 C 96.571 296.800,96.815 296.681,97.036 295.800 C 97.260 294.906,97.492 294.800,99.214 294.800 C 100.794 294.800,101.284 294.620,101.929 293.800 L 102.715 292.800 197.958 292.800 L 293.200 292.800 293.195 171.900 C 293.189 47.208,293.209 49.200,291.953 49.200 C 291.275 49.200,291.200 48.864,291.200 45.833 C 291.200 41.980,290.999 41.200,290.005 41.200 C 289.423 41.200,289.264 40.761,289.118 38.741 C 288.980 36.832,288.745 36.123,288.070 35.576 C 287.592 35.189,287.200 34.538,287.200 34.131 C 287.200 33.723,286.796 33.212,286.302 32.995 C 285.809 32.778,285.352 32.240,285.287 31.800 C 284.971 29.657,284.748 29.200,284.020 29.200 C 283.532 29.200,283.209 28.875,283.128 28.300 C 283.046 27.722,282.678 27.354,282.100 27.272 C 281.449 27.180,281.200 26.876,281.200 26.172 C 281.200 25.409,280.991 25.200,280.228 25.200 C 279.524 25.200,279.220 24.951,279.128 24.300 C 279.047 23.730,278.679 23.354,278.125 23.275 C 277.579 23.198,277.202 22.821,277.125 22.275 C 277.034 21.642,276.677 21.363,275.831 21.267 C 275.189 21.194,274.321 20.699,273.902 20.167 C 273.285 19.381,272.777 19.200,271.199 19.200 C 269.488 19.200,269.240 19.092,269.128 18.300 L 269.000 17.400 182.100 17.299 L 95.200 17.198 95.200 18.199 M258.164 37.800 C 258.966 38.602,259.562 38.800,261.182 38.800 C 263.068 38.800,263.200 38.865,263.200 39.800 C 263.200 40.600,263.400 40.800,264.200 40.800 C 265.000 40.800,265.200 41.000,265.200 41.800 C 265.200 42.600,265.400 42.800,266.200 42.800 C 267.133 42.800,267.200 42.933,267.200 44.800 C 267.200 46.667,267.267 46.800,268.200 46.800 C 269.178 46.800,269.200 46.867,269.200 49.800 C 269.200 52.733,269.222 52.800,270.200 52.800 L 271.200 52.800 271.200 161.999 L 271.200 271.198 184.500 271.299 L 97.800 271.400 97.405 272.300 C 97.048 273.114,96.734 273.200,94.105 273.200 C 91.273 273.200,91.200 273.225,91.200 274.200 C 91.200 275.135,91.068 275.200,89.182 275.200 C 87.562 275.200,86.966 275.398,86.164 276.200 C 85.614 276.750,84.722 277.200,84.182 277.200 C 83.401 277.200,83.200 277.405,83.200 278.200 C 83.200 279.000,83.000 279.200,82.200 279.200 L 81.200 279.200 81.200 170.800 C 81.200 95.292,81.328 62.400,81.620 62.400 C 82.372 62.400,83.200 59.683,83.200 57.213 C 83.200 55.116,83.299 54.800,83.953 54.800 C 84.751 54.800,85.185 53.784,85.195 51.900 C 85.199 50.995,85.377 50.800,86.200 50.800 C 86.992 50.800,87.200 50.598,87.200 49.828 C 87.200 49.124,87.449 48.820,88.100 48.728 C 88.670 48.647,89.046 48.279,89.125 47.725 C 89.202 47.179,89.579 46.802,90.125 46.725 C 90.679 46.646,91.047 46.270,91.128 45.700 C 91.220 45.049,91.524 44.800,92.228 44.800 C 92.992 44.800,93.200 44.591,93.200 43.823 C 93.200 42.960,93.398 42.832,94.900 42.723 C 96.300 42.622,96.622 42.445,96.725 41.721 C 96.831 40.979,97.144 40.823,98.725 40.721 C 100.321 40.618,100.619 40.466,100.728 39.700 C 100.847 38.860,101.052 38.800,103.784 38.800 C 106.575 38.800,106.725 38.753,106.964 37.800 L 107.215 36.800 182.189 36.800 L 257.164 36.800 258.164 37.800 M105.200 154.999 L 105.200 248.800 176.551 248.800 C 236.093 248.800,247.976 248.710,248.352 248.258 C 248.683 247.859,248.775 223.087,248.701 154.558 L 248.600 61.400 176.900 61.299 L 105.200 61.198 105.200 154.999 M107.829 317.829 C 107.483 318.174,107.200 318.624,107.200 318.829 C 107.200 319.033,106.750 319.200,106.200 319.200 C 105.400 319.200,105.200 319.400,105.200 320.200 C 105.200 321.000,105.000 321.200,104.200 321.200 L 103.200 321.200 103.200 329.000 L 103.200 336.800 104.200 336.800 C 105.000 336.800,105.200 337.000,105.200 337.801 L 105.200 338.802 198.864 338.701 L 292.528 338.600 292.972 337.000 C 293.249 336.003,293.753 335.251,294.309 335.005 C 296.219 334.159,295.452 319.652,293.476 319.272 C 293.089 319.197,292.337 318.700,291.804 318.168 L 290.836 317.200 199.647 317.200 C 117.280 317.200,108.396 317.261,107.829 317.829 " stroke="none" fill="#000000" fill-rule="evenodd"></path></g></svg>