<?xml version="1.0" standalone="no"?><!DOCTYPE svg PUBLIC "-//W3C//DTD SVG 1.1//EN" "http://www.w3.org/Graphics/SVG/1.1/DTD/svg11.dtd"><svg t="1537425664259" class="icon" style="" viewBox="0 0 1024 1024" version="1.1" xmlns="http://www.w3.org/2000/svg" p-id="1957" xmlns:xlink="http://www.w3.org/1999/xlink" width="64" height="64"><defs><style type="text/css"></style></defs><path d="M914.286 73.143l-256 0c-59.75 0-112.892 28.804-146.286 73.251-33.392-44.447-86.535-73.251-146.286-73.251l-256 0c-40.322 0-73.143 32.803-73.143 73.143l0 676.571c0 40.322 32.786 73.143 73.143 73.143l268.857 0c35.893 35.072 83.643 54.857 133.429 54.857S609.536 931.072 645.429 896l268.857 0c40.322 0 73.143-32.786 73.143-73.143L987.429 146.286C987.429 105.964 954.645 73.143 914.286 73.143zM914.286 822.857 629.609 822.857c-10.679 0-20.822 4.643-27.785 12.785-22.894 26.715-55.643 42.071-89.823 42.071s-66.929-15.356-89.821-42.071c-6.965-8.143-17.106-12.785-27.785-12.785L109.716 822.857 109.716 146.286l256 0c60.5 0 109.714 49.214 109.714 109.714l0 310.857c0 20.215 16.357 36.571 36.571 36.571s36.571-16.357 36.571-36.571L548.572 256c0-60.5 49.214-109.714 109.714-109.714l256 0L914.286 822.857z" p-id="1958"></path></svg>