<?xml version="1.0" standalone="no"?><!DOCTYPE svg PUBLIC "-//W3C//DTD SVG 1.1//EN" "http://www.w3.org/Graphics/SVG/1.1/DTD/svg11.dtd"><svg t="1537425793561" class="icon" style="" viewBox="0 0 1024 1024" version="1.1" xmlns="http://www.w3.org/2000/svg" p-id="3881" xmlns:xlink="http://www.w3.org/1999/xlink" width="64" height="64"><defs><style type="text/css"></style></defs><path d="M234.7 904.9h554.7c76.3 0 138.7-62.4 138.7-138.7V367.6c0-76.3-62.4-138.7-138.7-138.7H663.5l49.5-69.3c6.9-12.1 5.2-27.7-6.9-36.4-12.1-6.9-27.7-5.2-36.4 6.9l-70.6 98.8H424.8l-70.6-98.8c-8.7-12.1-24.3-13.9-36.4-5.2-12.1 8.7-15.6 24.3-6.9 36.4l48.3 67.6H234.7C158.4 228.9 96 291.3 96 367.6v398.7c0 76.2 62.4 138.6 138.7 138.6z m-69.4-537.3c0-38.1 31.2-69.3 69.3-69.3h554.7c38.1 0 69.3 31.2 69.3 69.3v398.7c0 38.1-31.2 69.3-69.3 69.3H234.7c-38.1 0-69.3-31.2-69.3-69.3V367.6z" p-id="3882"></path><path d="M434 719.4c3.5 1.7 8.7 3.5 13.9 3.5 8.7 0 17.3-1.7 24.3-8.7l161.2-112.7c12.1-8.7 19.1-20.8 19.1-34.7 0-13.9-6.9-26-19.1-34.7L472.1 419.6c-13.9-8.7-27.7-10.4-38.1-5.2-10.4 6.9-17.3 19.1-17.3 34.7v235.7c0 15.6 6.9 29.4 17.3 34.6z m17.3-272.1l162.9 117.9c3.5 1.7 5.2 3.5 5.2 5.2 0 1.7-1.7 3.5-5.2 5.2L453.1 688.2h-1.7V447.3z" p-id="3883"></path></svg>