<?xml version="1.0" standalone="no"?><!DOCTYPE svg PUBLIC "-//W3C//DTD SVG 1.1//EN" "http://www.w3.org/Graphics/SVG/1.1/DTD/svg11.dtd"><svg t="1537425981850" class="icon" style="" viewBox="0 0 1024 1024" version="1.1" xmlns="http://www.w3.org/2000/svg" p-id="21519" xmlns:xlink="http://www.w3.org/1999/xlink" width="64" height="64"><defs><style type="text/css"></style></defs><path d="M932.763795 59.249389c-27.149299-27.606419-63.245664-42.804147-101.638704-42.804147-38.404116 0-74.501487 15.197727-101.632663 42.804147l-23.32822 23.721907-53.130627-54.008619c-7.686462-7.816348-20.140463-7.816348-27.826924 0L330.637163 328.469871c-7.692503 7.806279-7.692503 20.479778 0 28.302168 3.841217 3.906664 8.879605 5.852948 13.919 5.852948s10.07879-1.946284 13.919-5.852948L639.109547 71.416431l39.205586 39.867101-566.408851 575.961047c-41.136766 41.829494-52.995706 105.445687-31.111341 159.325427l-51.418944 52.31204c-10.382865 10.553026-16.101899 24.565665-16.101899 39.508654 0 14.942989 5.707958 28.965697 16.085789 39.507647 10.377831 10.554033 24.169965 16.373754 38.852174 16.373754 14.657037 0 28.448164-5.810659 38.825995-16.345562l51.444116-52.329157c17.40177 7.322981 36.205107 11.14104 55.136316 11.14104 38.364848 0 74.420937-15.198734 101.531976-42.777968l617.611318-628.001231C988.802269 208.963215 988.802269 116.234322 932.763795 59.249389zM287.323539 865.65728c-19.680322 20.01259-45.860003 31.049922-73.703038 31.049922-17.406805 0-34.647476-4.428223-49.855272-12.837619l-12.913135-7.120599-71.627874 72.864313c-5.863016 5.96169-16.128077 5.9486-22.029355-0.017117-2.936039-2.985376-4.552069-6.979637-4.552069-11.20548 0-4.220808 1.59992-8.195939 4.552069-11.183328l71.63895-72.874382-7.006823-13.131626c-21.896448-40.975667-14.52413-92.647336 17.909234-125.642535l20.707332-21.056716L308.041946 844.590495 287.323539 865.65728zM745.422152 399.866165 597.806647 249.7657l42.986391-43.713352 147.612484 150.105499L745.422152 399.866165zM757.318346 87.545515c19.707508-20.038769 45.924443-31.071066 73.81178-31.071066 27.880288 0 54.082121 11.032298 73.804732 31.087176 40.687702 41.373381 40.687702 108.710974 0 150.099458L757.318346 87.545515zM480.857446 979.046181 347.338151 979.046181c-10.86415 0-19.680322 8.963175-19.680322 20.011583 0 11.041359 8.817179 20.01259 19.680322 20.01259l133.520302 0c10.865157 0 19.680322-8.965189 19.680322-20.01259C500.538775 988.009357 491.722603 979.046181 480.857446 979.046181zM913.355329 979.046181 585.208663 979.046181c-10.865157 0-19.680322 8.963175-19.680322 20.011583 0 11.041359 8.8202 20.01259 19.680322 20.01259l328.146665 0c10.86415 0 19.680322-8.965189 19.680322-20.01259C933.035651 988.009357 924.219478 979.046181 913.355329 979.046181z" p-id="21520"></path></svg>