<?xml version="1.0" standalone="no"?><!DOCTYPE svg PUBLIC "-//W3C//DTD SVG 1.1//EN" "http://www.w3.org/Graphics/SVG/1.1/DTD/svg11.dtd"><svg t="1526401241780" class="icon" style="" viewBox="0 0 1024 1024" version="1.1" xmlns="http://www.w3.org/2000/svg" p-id="2543" xmlns:xlink="http://www.w3.org/1999/xlink" width="64" height="64"><defs><style type="text/css"></style></defs><path d="M512 959.677019c-247.24715 0-447.677019-200.429869-447.677019-447.677019S264.75285 64.322981 512 64.322981c247.248174 0 447.677019 200.429869 447.677019 447.677019S759.246127 959.677019 512 959.677019L512 959.677019zM719.833489 302.497499l-0.005117 0c-20.952194-20.951171-54.92289-20.951171-75.876108 0L510.980787 435.468976 379.694695 304.176744c-20.8734-20.8734-54.712089-20.8734-75.585489 0l-0.005117 0c-20.86726 20.878516-20.86726 54.717206 0 75.590606L435.390181 511.053442 302.492382 643.959428c-20.957311 20.951171-20.957311 54.913681 0 75.864852l0.005117 0c20.945031 20.956288 54.918797 20.956288 75.876108 0l132.892683-132.887566 132.966361 132.971477c20.877493 20.849864 54.717206 20.849864 75.584466 0l0-0.022513c20.8734-20.8734 20.8734-54.694693 0-75.568093L586.851778 511.345084l132.98171-132.977617C740.785683 357.411179 740.785683 323.44867 719.833489 302.497499L719.833489 302.497499z" p-id="2544"></path></svg>